#!OML:ASF F:\VICON\USERDATA\INSTALL\rory3\rory3.ASF
:FULLY-SPECIFIED
:DEGREES
52
root 2.20172 18.7243 2.04186 6.76412 -2.60499 7.52984
lowerback 12.477 -3.37181 -7.4193
upperback 0.0454381 -5.62759 -1.16664
thorax -6.35377 -2.53617 3.89623
lowerneck -8.0226 2.433 -0.216574
upperneck -7.71346 3.25114 0.371273
head -1.06604 1.61837 0.192324
rclavicle 7.82715e-016 2.96189e-014
rhumerus -64.5415 2.19211 -78.0433
rradius 77.5844
rwrist -6.46378
rhand -38.0929 30.2105
rfingers 7.12502
rthumb -11.1288 0.525595
lclavicle 7.82715e-016 2.96189e-014
lhumerus -20.3486 -26.5965 88.405
lradius 121.984
lwrist 24.7233
lhand -36.6651 5.78144
lfingers 7.12502
lthumb -9.75154 35.5357
rfemur -39.1926 7.2015 10.3327
rtibia 31.2169
rfoot 3.83068 -6.4215
rtoes -5.01564
lfemur 26.2085 -5.22529 -34.1924
ltibia 13.5236
lfoot 30.2413 1.75232
ltoes -19.7505
53
root 2.19505 18.7309 2.51558 7.19315 -3.04117 7.10943
lowerback 13.7854 -3.27531 -6.77889
upperback -0.919624 -5.57028 -1.07274
thorax -8.19346 -2.4198 3.78425
lowerneck -7.1727 2.36158 -0.386868
upperneck -8.08301 3.18059 0.622239
head -1.32661 1.58358 0.283043
rclavicle 3.31846e-014 -1.47101e-014
rhumerus -65.4082 1.94422 -78.0354
rradius 77.7338
rwrist -6.20975
rhand -37.974 30.9343
rfingers 7.12502
rthumb -11.0142 1.24329
lclavicle 3.31846e-014 -1.47101e-014
lhumerus -23.0675 -26.8619 89.6645
lradius 121.854
lwrist 23.8558
lhand -36.551 4.13717
lfingers 7.12502
lthumb -9.64141 33.8965
rfemur -38.658 9.09031 10.1562
rtibia 27.6472
rfoot 2.53592 -10.0626
rtoes -2.94923
lfemur 23.9189 -5.27543 -33.9866
ltibia 18.9774
lfoot 29.6346 1.77679
ltoes -12.9547
54
root 2.20182 18.7232 3.02482 7.13634 -3.14855 7.23033
lowerback 13.5247 -3.30674 -6.75261
upperback -0.622874 -5.56619 -1.0606
thorax -7.72353 -2.44743 3.74706
lowerneck -6.88608 2.33157 -0.544852
upperneck -9.03037 3.15499 0.669599
head -1.67924 1.57132 0.314309
rclavicle 1.2424e-015 -1.58531e-014
rhumerus -64.5266 1.48773 -77.9834
rradius 77.6788
rwrist -5.91712
rhand -38.3268 31.404
rfingers 7.12502
rthumb -11.3544 1.73135
lclavicle 1.2424e-015 -1.58531e-014
lhumerus -23.7925 -26.7902 90.1296
lradius 121.398
lwrist 23.4208
lhand -36.0478 3.96021
lfingers 7.12502
lthumb -9.15591 33.7415
rfemur -37.6281 9.86853 9.86293
rtibia 25.1845
rfoot 0.614908 -12.7272
rtoes -1.65733
lfemur 22.3641 -5.57832 -34.3902
ltibia 23.9816
lfoot 29.2815 2.34529
ltoes -22.5361
55
root 2.20735 18.6883 3.54892 6.835 -3.29072 7.56271
lowerback 13.0035 -3.28361 -7.03846
upperback 0.0253897 -5.49633 -1.07463
thorax -6.71137 -2.46483 3.80602
lowerneck -7.30263 2.32823 -0.784702
upperneck -9.6048 3.16526 0.66753
head -1.79967 1.583 0.355096
rclavicle 3.99876e-014 1.59773e-014
rhumerus -63.1252 1.11955 -77.9627
rradius 77.6105
rwrist -5.81942
rhand -38.3873 31.6884
rfingers 7.12502
rthumb -11.4128 2.01898
lclavicle 3.99876e-014 1.59773e-014
lhumerus -23.9201 -26.5764 90.4338
lradius 120.607
lwrist 23.5545
lhand -35.6813 3.60732
lfingers 7.12502
lthumb -8.80227 33.4038
rfemur -36.3194 9.01459 10.2446
rtibia 23.4272
rfoot -0.587329 -13.4974
rtoes -0.813219
lfemur 20.9726 -4.81539 -34.582
ltibia 29.1643
lfoot 28.2637 1.62797
ltoes -22.3912
56
root 2.21699 18.6241 4.07545 6.39471 -3.30579 7.68248
lowerback 13.3985 -3.2745 -6.75608
upperback 0.243194 -5.47058 -1.1979
thorax -6.73974 -2.46594 3.53687
lowerneck -7.82328 2.27599 -0.869748
upperneck -9.62116 3.10733 0.767498
head -1.72149 1.55598 0.406002
rclavicle -1.61916e-014 3.03209e-014
rhumerus -62.4295 0.827446 -78.1642
rradius 77.711
rwrist -5.83187
rhand -38.6398 31.6867
rfingers 7.12502
rthumb -11.6563 2.03096
lclavicle -1.61916e-014 3.03209e-014
lhumerus -25.0961 -26.4568 91.0363
lradius 119.809
lwrist 23.6215
lhand -35.3652 4.45599
lfingers 7.12502
lthumb -8.49719 34.265
rfemur -35.0784 8.10184 10.9362
rtibia 22.5532
rfoot -0.0425491 -13.4997
rtoes -3.60028
lfemur 20.0284 -3.99069 -34.4624
ltibia 34.2071
lfoot 27.7298 0.77286
ltoes -19.6958
